<?xml version="1.0" encoding="UTF-8" standalone="no"?>
<!-- Created with Inkscape (http://www.inkscape.org/) -->

<svg
   width="61.874374mm"
   height="37.334469mm"
   viewBox="0 0 61.874374 37.334469"
   version="1.1"
   id="svg1"
   inkscape:version="1.3.2 (091e20e, 2023-11-25, custom)"
   sodipodi:docname="logo_ebike.svg"
   xmlns:inkscape="http://www.inkscape.org/namespaces/inkscape"
   xmlns:sodipodi="http://sodipodi.sourceforge.net/DTD/sodipodi-0.dtd"
   xmlns="http://www.w3.org/2000/svg"
   xmlns:svg="http://www.w3.org/2000/svg">
  <sodipodi:namedview
     id="namedview1"
     pagecolor="#ffffff"
     bordercolor="#000000"
     borderopacity="0.25"
     inkscape:showpageshadow="2"
     inkscape:pageopacity="0.0"
     inkscape:pagecheckerboard="0"
     inkscape:deskcolor="#d1d1d1"
     inkscape:document-units="mm"
     inkscape:zoom="3.5634119"
     inkscape:cx="189.56551"
     inkscape:cy="109.44567"
     inkscape:window-width="1920"
     inkscape:window-height="1138"
     inkscape:window-x="2553"
     inkscape:window-y="-6"
     inkscape:window-maximized="1"
     inkscape:current-layer="layer1" />
  <defs
     id="defs1">
    <inkscape:path-effect
       effect="perspective-envelope"
       up_left_point="39.567137,65.8704"
       up_right_point="99.405873,65.8704"
       down_left_point="26.441467,103.20487"
       down_right_point="87.330257,103.20487"
       id="path-effect20"
       is_visible="true"
       lpeversion="1"
       deform_type="envelope_deformation"
       horizontal_mirror="false"
       vertical_mirror="false"
       overflow_perspective="false" />
    <inkscape:path-effect
       effect="transform_2pts"
       start="64.326493,65.660389"
       end="45.517822,82.121917"
       id="path-effect19"
       is_visible="true"
       lpeversion="1"
       first_knot="1"
       last_knot="156"
       helper_size="3"
       stretch="1"
       offset="0"
       elastic="false"
       from_original_width="false"
       flip_vertical="false"
       flip_horizontal="false"
       lock_length="false"
       lock_angle="false" />
    <inkscape:path-effect
       effect="envelope"
       id="path-effect18"
       is_visible="true"
       lpeversion="1"
       yy="true"
       xx="true"
       bendpath1="m 26.441467,65.660389 h 60.88879"
       bendpath2="M 87.330257,65.660389 V 103.20487"
       bendpath3="m 26.441467,103.20487 h 60.88879"
       bendpath4="M 26.441467,65.660389 V 103.20487" />
    <inkscape:path-effect
       effect="bend_path"
       id="path-effect17"
       is_visible="true"
       lpeversion="1"
       bendpath="m 26.441467,84.432629 h 60.88879"
       prop_scale="1"
       scale_y_rel="false"
       vertical="false"
       hide_knot="false" />
  </defs>
  <g
     inkscape:label="Ebene 1"
     inkscape:groupmode="layer"
     id="layer1"
     transform="translate(-29.899032,-65.8704)">
    <path
       id="path1"
       style="color:#000000;fill:#000000;stroke-linecap:round;stroke-linejoin:round;-inkscape-stroke:none"
       d="m 76.798819,65.8704 c -0.21709,1.4e-5 -0.452588,0.17808 -0.526023,0.397739 -0.07341,0.219658 0.04312,0.397724 0.260278,0.397737 0.162251,-4.23e-4 0.341218,-0.101422 0.450724,-0.254367 l 4.605795,0.188591 c -0.02668,0.169593 0.06396,0.300678 0.224573,0.324768 l -0.645207,7.030821 c -0.07585,0.04751 -0.142212,0.111598 -0.191024,0.184481 L 61.50061,73.983952 c -0.0195,-0.124408 -0.113119,-0.207228 -0.246888,-0.218396 l 0.257031,-2.556521 c 0.06878,-0.04181 0.130467,-0.09724 0.178968,-0.160844 l 3.945733,-0.05653 c 0.0012,0.159388 0.113759,0.266303 0.280883,0.266701 0.21764,-1.3e-5 0.454277,-0.178079 0.528567,-0.397739 0.07426,-0.219659 -0.04188,-0.397724 -0.259435,-0.397737 -0.153615,1.91e-4 -0.323612,0.09045 -0.435556,0.231243 l -3.954013,0.05704 c -0.0058,-0.153726 -0.117047,-0.255452 -0.279861,-0.255909 -0.167335,3.97e-4 -0.352496,0.107312 -0.461892,0.2667 l -1.883514,0.02723 c -0.03489,-0.111255 -0.1353,-0.178213 -0.267389,-0.178314 -0.217675,-2.7e-4 -0.455267,0.177879 -0.530451,0.397739 -0.07516,0.21986 0.04068,0.398008 0.258621,0.397738 0.188133,-6.28e-4 0.395394,-0.135066 0.495138,-0.321172 l 1.839133,-0.02621 c 0.01454,0.124989 0.102226,0.211288 0.23183,0.22816 l -0.258489,2.568855 c -0.115641,0.07545 -0.205795,0.187267 -0.246101,0.305241 -0.01639,0.04909 -0.0236,0.0977 -0.02126,0.143371 l -7.794073,7.225064 c -0.03812,-0.01664 -0.08156,-0.02535 -0.128298,-0.02569 -0.07383,1.15e-4 -0.153267,0.02094 -0.229345,0.06012 -1.447559,-1.307122 -3.476878,-2.073481 -5.948066,-2.073481 -3.060473,0 -6.258543,1.173737 -9.028905,3.097117 -0.04518,-0.02758 -0.100576,-0.042 -0.161844,-0.04214 -0.218791,1.4e-5 -0.45848,0.178079 -0.535382,0.397739 -0.02036,0.05868 -0.02752,0.116586 -0.02096,0.169578 -2.802379,2.133391 -5.089885,5.035365 -6.214719,8.234826 -1.787122,5.08326 -0.0947,9.419995 3.835179,11.105325 -0.05681,0.20755 0.06097,0.36819 0.270138,0.36845 0.11368,-1.4e-4 0.238652,-0.0483 0.343696,-0.13258 0.986238,0.33496 2.093442,0.51593 3.306201,0.51593 4.588692,0 9.452909,-2.5815 12.733186,-6.361759 0.217276,-0.0067 0.448092,-0.182178 0.521714,-0.396711 0.02861,-0.08477 0.0293,-0.16723 0.002,-0.235354 1.118916,-1.41208 2.017619,-2.970294 2.610801,-4.610988 l 4.726182,0.06834 c 0.03814,0.106673 0.138271,0.17037 0.268183,0.170606 0.21974,-1.3e-5 0.458055,-0.178079 0.532317,-0.397737 0.0031,-0.01 0.0057,-0.0199 0.008,-0.02981 L 80.845862,76.228553 c 0.03257,0.0214 0.07077,0.03582 0.112976,0.04265 l -0.29138,3.232266 c -0.127652,0.06793 -0.23237,0.181872 -0.282406,0.307297 -3.350908,0.737055 -6.641031,2.7063 -9.148972,5.369466 0,0 -5.13e-4,0 -5.13e-4,0 -0.01776,-0.0027 -0.03614,-0.0041 -0.055,-0.0041 -0.21906,1.3e-5 -0.456086,0.178079 -0.529437,0.397739 -0.0305,0.09186 -0.02833,0.180826 0.0062,0.251797 -1.419807,1.649758 -2.541895,3.527703 -3.208936,5.522087 -1.500236,4.485543 -0.302847,8.39054 2.719569,10.404915 -0.0057,0.0128 -0.01086,0.0257 -0.01536,0.0385 -0.07282,0.21966 0.04712,0.39772 0.267902,0.39773 0.09894,-1.5e-4 0.2064,-0.0368 0.301604,-0.10277 1.29766,0.71618 2.877039,1.11871 4.684376,1.11871 6.583372,0 13.641499,-5.310578 15.758938,-11.857125 0.842431,-2.604565 0.780333,-5.011952 -0.0062,-6.968642 0.07009,-0.06722 0.122405,-0.147883 0.149653,-0.230729 0.07126,-0.219659 -0.04842,-0.397724 -0.267329,-0.397738 -0.04903,3.23e-4 -0.100529,0.0097 -0.151892,0.02775 -1.314878,-2.618785 -4.033174,-4.287762 -7.682351,-4.287762 -0.671857,0 -1.349173,0.05943 -2.026246,0.168036 -0.01909,-0.107379 -0.09377,-0.18411 -0.20308,-0.208632 l 0.292645,-3.249737 c 0.127616,-0.0746 0.228332,-0.194461 0.27074,-0.322199 0.06487,-0.196759 -0.02284,-0.363868 -0.206346,-0.393113 l 0.08027,-0.884892 c 0.135373,-0.07334 0.243671,-0.198092 0.288177,-0.331961 0.06698,-0.203223 -0.02883,-0.373628 -0.222168,-0.395169 l 0.64398,-7.022085 c 0.125567,-0.07462 0.224659,-0.193259 0.266968,-0.319629 0.07277,-0.21966 -0.04423,-0.397726 -0.261341,-0.397739 -0.128518,2.37e-4 -0.26987,0.06393 -0.378603,0.170606 L 77.079259,66.11192 c -0.01291,-0.146345 -0.123225,-0.241349 -0.28044,-0.24152 z m -15.377961,8.412627 19.475984,0.156217 c 0.01646,0.113383 0.09368,0.194368 0.208224,0.218397 l -0.08157,0.897737 c -0.128102,0.07448 -0.229351,0.194607 -0.272001,0.322713 -0.0135,0.04156 -0.02043,0.08283 -0.02054,0.122302 L 59.719436,91.13603 c -0.03985,-0.04642 -0.09674,-0.0768 -0.164532,-0.08787 l 1.625333,-16.549303 c 0.09625,-0.04972 0.181511,-0.126203 0.240621,-0.215827 z m -0.616164,0.242034 c 0.02008,0.01007 0.04187,0.01781 0.06505,0.02312 L 59.241616,91.11753 c -0.104547,0.05984 -0.192796,0.150153 -0.246048,0.251798 l -4.656151,-0.0668 c 1.272733,-3.778847 0.638622,-7.139374 -1.378425,-9.301114 0.01993,-0.03251 0.03605,-0.06601 0.04798,-0.09969 0.0198,-0.05829 0.0266,-0.115833 0.0199,-0.168551 z m -14.336307,5.264636 c 2.40691,0 4.383657,0.744351 5.794788,2.014385 -0.01921,0.03189 -0.03476,0.06469 -0.04628,0.09764 -0.02943,0.08676 -0.02977,0.171038 -9.57e-4,0.239979 l -9.685411,8.929069 c -0.04799,-0.0347 -0.109629,-0.05313 -0.178825,-0.05344 -0.219656,1.4e-5 -0.459389,0.17808 -0.535482,0.397739 -0.07607,0.219659 0.04039,0.397724 0.260112,0.397738 0.213005,-3.69e-4 0.445938,-0.168168 0.528587,-0.38078 l 11.332347,0.163926 c -0.57379,1.585775 -1.439487,3.092227 -2.516789,4.458882 -0.02029,-0.0038 -0.04146,-0.0059 -0.06331,-0.0062 -0.22017,1.3e-5 -0.459433,0.178079 -0.534432,0.397738 -0.03804,0.111984 -0.02696,0.218699 0.03052,0.293936 -3.197115,3.666694 -7.923056,6.165454 -12.384472,6.165454 -1.177304,0 -2.252203,-0.17501 -3.210545,-0.49845 0.06512,-0.21282 -0.05223,-0.38092 -0.266177,-0.3813 -0.118372,1.8e-4 -0.248721,0.0525 -0.355982,0.14286 -3.82484,-1.64498 -5.469866,-5.867393 -3.728954,-10.821155 1.097676,-3.123441 3.329668,-5.954272 6.064431,-8.033902 0.03874,0.0176 0.08322,0.02683 0.131275,0.02724 0.218873,-1.3e-5 0.458562,-0.178079 0.535384,-0.397738 0.01564,-0.04539 0.02342,-0.0904 0.02299,-0.133094 2.701294,-1.875881 5.820291,-3.02055 8.807177,-3.02055 z m 36.640517,0 c 3.56598,0 6.219711,1.63117 7.498337,4.191154 -0.04134,0.05249 -0.0725,0.109656 -0.09129,0.167523 -0.07134,0.21966 0.04834,0.397726 0.267331,0.397739 0.02398,-2.4e-4 0.0486,-0.0026 0.07355,-0.0072 0.771499,1.909678 0.833511,4.26212 0.0094,6.808827 -2.066179,6.385322 -8.941093,11.558045 -15.361446,11.558045 -1.760617,0 -3.29918,-0.39105 -4.563406,-1.08735 0.0038,-0.009 0.0074,-0.0181 0.01057,-0.0272 0.07275,-0.21966 -0.04719,-0.39773 -0.267897,-0.39774 -0.09474,2.6e-4 -0.197392,0.0339 -0.289684,0.0951 -2.944184,-1.963236 -4.109138,-5.767156 -2.646944,-10.140775 0.649629,-1.94313 1.741773,-3.772291 3.123076,-5.379229 0.0145,0.0019 0.02939,0.0029 0.0446,0.0031 0.21914,-1.3e-5 0.456167,-0.178078 0.529436,-0.397737 0.02912,-0.08806 0.02825,-0.173548 -0.0025,-0.243063 2.450065,-2.601141 5.665733,-4.522284 8.940975,-5.235346 0.04085,0.07905 0.119517,0.128656 0.219202,0.138233 l -0.964803,10.919816 c -0.138824,0.07295 -0.250046,0.199519 -0.294856,0.33556 -0.07223,0.219659 0.04733,0.397724 0.267064,0.397738 0.219744,-1.4e-5 0.456377,-0.178079 0.528559,-0.397738 0.06136,-0.188354 -0.01793,-0.350518 -0.18994,-0.388489 l 0.967073,-10.952705 c 0.07705,-0.04917 0.143873,-0.11532 0.192066,-0.190133 0.668569,-0.108409 1.337854,-0.168037 2.001472,-0.168037 z m -30.405152,2.450151 c 1.962703,2.105547 2.578722,5.376947 1.340193,9.058051 l -11.212439,-0.161356 9.589661,-8.841197 c 0,0 5.11e-4,0 5.11e-4,0 0.01771,0.0027 0.03606,0.0041 0.05489,0.0041 0.07319,-3.41e-4 0.151821,-0.02097 0.227188,-0.05961 z" />
    <path
       style="fill:none;fill-opacity:1;stroke:#000000;stroke-width:0.3;stroke-linecap:round;stroke-linejoin:round;stroke-dasharray:none;stroke-opacity:1"
       d="M 48.562247,73.892962 H 35.121561"
       id="path20" />
    <path
       style="fill:none;fill-opacity:1;stroke:#000000;stroke-width:0.3;stroke-linecap:round;stroke-linejoin:round;stroke-dasharray:none;stroke-opacity:1"
       d="M 45.790384,77.058649 H 32.349698"
       id="path20-7" />
    <path
       style="fill:none;fill-opacity:1;stroke:#000000;stroke-width:0.3;stroke-linecap:round;stroke-linejoin:round;stroke-dasharray:none;stroke-opacity:1"
       d="M 51.946714,71.188025 H 38.506028"
       id="path20-8" />
  </g>
</svg>
